<svg xmlns="http://www.w3.org/2000/svg" xmlns:xlink="http://www.w3.org/1999/xlink" id="ACR_1:1" width="256" height="256" x="0" y="0" enable-background="new 0 0 256 256" version="1.1" viewBox="0 0 256 256" xml:space="preserve"><defs><filter id="screen"><feBlend in2="BackgroundImage" mode="screen"/></filter></defs><g id="ACube"><polyline id="Outer_Cube" fill="#C1272D" points="183.184 71.213 99.319 22.795 16 71.214 16.272 71.373 16 167.578 99.863 215.998 99.864 215.795 99.864 215.998 183.729 167.578 183.454 71.214"/><polyline id="Inner_Cube" fill="#FFF" points="169.428 79.168 99.409 38.745 29.848 79.169 30.075 79.301 29.848 159.621 99.863 200.047 99.864 199.877 99.864 200.047 169.88 159.621 169.651 79.169" opacity=".2"/><g id="Screener" style="filter:url(#screen)"><g id="Right_Shine" opacity=".75"><g><polygon fill="none" points="99.885 216 99.612 119.635 183.474 71.214 183.748 167.58"/><g><radialGradient id="SVGID_1_" cx="99.494" cy="119.945" r="89.313" gradientTransform="matrix(0.9719 0 0 0.9719 2.7861 2.7903)" gradientUnits="userSpaceOnUse"><stop offset="0" style="stop-color:#fff"/><stop offset="1" style="stop-color:#000"/></radialGradient><polyline fill="url(#SVGID_1_)" points="183.474 71.214 99.612 119.635 99.885 216 183.748 167.58 183.474 71.214"/></g></g></g><g id="Left_Shine" opacity=".75"><g><radialGradient id="SVGID_2_" cx="56.879" cy="144.887" r="60.916" gradientTransform="matrix(0.9719 0 0 0.9719 2.7861 2.7903)" gradientUnits="userSpaceOnUse"><stop offset="0" style="stop-color:#fff"/><stop offset="1" style="stop-color:#000"/></radialGradient><polygon fill="url(#SVGID_2_)" points="16 167.578 16.272 71.214 100.136 119.633 99.863 215.998"/><g><radialGradient id="SVGID_3_" cx="98.576" cy="121.035" r="86.685" gradientTransform="matrix(0.9719 0 0 0.9719 2.7861 2.7903)" gradientUnits="userSpaceOnUse"><stop offset="0" style="stop-color:#fff"/><stop offset="1" style="stop-color:#000"/></radialGradient><polyline fill="url(#SVGID_3_)" points="100.136 119.633 16.272 71.214 16 167.578 99.863 215.996 100.136 119.633"/></g></g></g><g id="Top_Shine"><g><radialGradient id="SVGID_4_" cx="99.884" cy="119.216" r="97.817" gradientTransform="matrix(0.9719 0 0 0.9719 2.7861 2.7903)" gradientUnits="userSpaceOnUse"><stop offset="0" style="stop-color:#fff"/><stop offset="1" style="stop-color:#000"/></radialGradient><polygon fill="url(#SVGID_4_)" points="16.272 71.214 99.592 22.795 183.454 71.213 100.137 119.633"/><g><radialGradient id="SVGID_5_" cx="100.368" cy="119.51" r="106.86" gradientTransform="matrix(0.9719 0 0 0.9719 2.7861 2.7903)" gradientUnits="userSpaceOnUse"><stop offset="0" style="stop-color:#fff"/><stop offset="1" style="stop-color:#000"/></radialGradient><polyline fill="url(#SVGID_5_)" points="183.454 71.213 99.592 22.795 16.272 71.214 100.137 119.633 183.454 71.213"/></g></g></g><g id="Front_Edge"><radialGradient id="SVGID_6_" cx="100.165" cy="119.977" r="93.073" gradientTransform="matrix(0.9719 0 0 0.9719 2.7861 2.7903)" gradientUnits="userSpaceOnUse"><stop offset="0" style="stop-color:#fff"/><stop offset="1" style="stop-color:#000"/></radialGradient><polygon fill="url(#SVGID_6_)" points="101.376 215.28 101.376 117.428 98.898 117.428 98.898 215.281 100.137 215.996"/></g><g id="Top_Corner"><radialGradient id="SVGID_7_" cx="100.717" cy="119.694" r="98.706" gradientTransform="matrix(0.9719 0 0 0.9719 2.7861 2.7903)" gradientUnits="userSpaceOnUse"><stop offset="0" style="stop-color:#fff"/><stop offset="1" style="stop-color:#000"/></radialGradient><polygon fill="url(#SVGID_7_)" points="99.886 116.762 18.296 69.657 16.021 70.979 99.886 119.396 183.202 70.978 180.928 69.664"/></g></g></g><g><g><polygon fill="#8CC63F" points="246 168.2 194.8 168.2 194.8 117 169.2 117 169.2 168.2 118 168.2 118 193.8 169.2 193.8 169.2 245 194.8 245 194.8 193.8 246 193.8"/></g><g><polygon fill="none" stroke="#39B54A" stroke-width="5" points="246 168.2 194.8 168.2 194.8 117 169.2 117 169.2 168.2 118 168.2 118 193.8 169.2 193.8 169.2 245 194.8 245 194.8 193.8 246 193.8"/></g></g></svg>